<?xml version="1.0" standalone="no"?>
<!DOCTYPE svg PUBLIC "-//W3C//DTD SVG 20010904//EN"
 "http://www.w3.org/TR/2001/REC-SVG-20010904/DTD/svg10.dtd">
<svg version="1.0" xmlns="http://www.w3.org/2000/svg"
 width="1080.000000pt" height="1080.000000pt" viewBox="0 0 1080.000000 1080.000000"
 preserveAspectRatio="xMidYMid meet">

<g transform="translate(0.000000,1080.000000) scale(0.100000,-0.100000)"
fill="#000000" stroke="none">
<path d="M0 5400 l0 -5400 5400 0 5400 0 0 5400 0 5400 -5400 0 -5400 0 0
-5400z m4790 4526 c0 -158 2 -175 18 -179 9 -3 -9 -5 -40 -6 -31 0 -59 3 -62
8 -4 5 -19 3 -35 -5 -64 -32 -121 19 -121 109 0 89 35 124 115 115 l35 -4 0
62 c0 51 -3 63 -17 67 -10 3 10 5 45 6 l62 1 0 -174z m1330 92 c0 -78 1 -80
18 -65 11 10 35 17 60 17 60 0 72 -23 72 -131 0 -75 3 -88 18 -92 9 -3 -17 -5
-58 -5 -41 0 -69 2 -62 5 8 3 12 33 12 98 0 98 -9 120 -38 91 -23 -22 -31
-174 -11 -187 8 -5 -46 -8 -131 -8 -80 0 -139 3 -132 6 15 6 18 203 3 203 -6
0 -17 -10 -25 -22 -20 -28 -23 -174 -3 -181 6 -3 -22 -5 -63 -5 -41 0 -67 2
-57 5 15 4 17 18 17 108 0 90 -2 104 -17 108 -10 3 10 5 45 6 51 1 62 -2 62
-16 0 -15 1 -15 18 0 19 17 78 23 99 9 21 -13 33 -62 33 -138 0 -72 1 -74 25
-74 l25 0 0 169 c0 126 -3 171 -12 174 -7 3 13 6 45 6 l57 1 0 -82z m-2457 55
c-10 -3 -13 -38 -13 -126 0 -149 -13 -185 -75 -205 -53 -17 -105 -5 -124 30
-14 24 -14 28 3 47 21 24 46 27 64 9 17 -17 15 -47 -3 -54 -23 -9 -18 -26 8
-22 22 3 22 6 25 160 2 143 1 157 -15 161 -10 3 18 5 62 5 44 0 74 -2 68 -5z
m1757 -47 l0 -49 -43 47 c-30 32 -51 46 -69 46 -47 0 -76 -52 -44 -79 7 -6 37
-18 66 -27 71 -21 110 -60 110 -111 0 -87 -64 -132 -162 -114 -36 6 -57 6 -65
-1 -10 -8 -13 3 -13 53 l0 64 24 -36 c44 -65 114 -90 150 -53 35 35 11 66 -74
99 -39 15 -77 36 -85 48 -32 46 -10 137 39 158 12 4 54 7 93 6 l73 -2 0 -49z
m-1236 1 c26 -19 17 -52 -14 -52 -18 0 -25 5 -24 18 1 10 -3 16 -10 14 -20 -6
-18 -36 3 -63 52 -66 7 -134 -89 -134 -68 0 -44 -17 29 -22 88 -5 113 -24 109
-82 -4 -58 -48 -86 -132 -86 -34 0 -72 6 -86 13 -29 15 -37 48 -16 66 22 19
46 6 46 -23 0 -54 104 -65 131 -14 18 33 -6 48 -75 48 -91 1 -122 36 -75 86
l21 22 -21 21 c-13 13 -21 34 -21 55 0 48 37 76 101 76 42 0 49 3 49 19 0 11
10 27 22 35 27 19 29 19 52 3z m1488 -84 c10 -10 20 -33 24 -51 l7 -32 -73 0
-73 0 6 -42 c6 -44 27 -68 59 -68 19 0 52 28 60 51 3 8 8 11 12 8 12 -11 -44
-67 -73 -74 -42 -9 -107 11 -130 42 -23 28 -29 109 -11 143 30 56 145 70 192
23z m-1789 16 c34 -15 50 -50 50 -104 0 -87 -73 -140 -161 -116 -53 15 -82 57
-82 120 0 36 6 49 34 77 30 30 40 34 85 34 27 0 61 -5 74 -11z m510 0 c34 -15
50 -50 49 -104 0 -50 -20 -88 -54 -106 -28 -16 -108 -15 -136 0 -61 33 -68
144 -13 193 25 23 41 28 81 28 27 0 60 -5 73 -11z m527 1 c-12 -7 -12 -12 -2
-22 25 -25 3 -68 -37 -68 -14 0 -41 29 -41 46 0 23 38 54 68 54 21 0 24 -2 12
-10z m106 -11 c15 -16 20 -40 23 -105 3 -84 13 -107 25 -58 4 15 10 24 13 21
3 -4 0 -20 -7 -36 -15 -36 -51 -47 -91 -27 -25 13 -33 13 -58 0 -35 -17 -77
-10 -91 16 -27 50 6 90 73 90 46 0 54 15 40 76 l-10 44 32 0 c20 0 39 -8 51
-21z m1472 5 c19 -13 22 -24 22 -92 0 -75 13 -125 24 -92 2 8 7 22 9 30 3 8 6
3 6 -11 1 -15 -6 -32 -15 -40 -18 -15 -81 -16 -96 -1 -7 7 -18 6 -34 -5 -43
-28 -104 0 -104 48 0 36 32 59 82 59 l38 0 0 55 c0 48 -2 55 -20 55 -22 0 -26
-10 -9 -27 15 -15 2 -51 -21 -58 -28 -9 -60 12 -60 40 0 35 35 55 100 55 34 0
64 -6 78 -16z m-4373 -1428 c75 -37 141 -94 181 -158 31 -48 64 -149 64 -193
l0 -35 620 0 620 0 0 35 c0 44 33 145 64 193 96 152 295 232 466 188 182 -47
300 -184 325 -378 l6 -48 558 0 558 0 7 62 c8 82 53 175 115 241 174 184 456
180 629 -7 55 -60 90 -131 104 -216 l12 -70 617 0 616 0 6 61 c16 184 194 351
389 366 182 14 343 -80 422 -247 26 -55 31 -79 34 -162 3 -72 0 -109 -13 -150
-91 -282 -432 -389 -666 -210 -72 55 -110 104 -144 187 l-24 60 -625 3 c-525
2 -626 0 -626 -12 0 -7 -16 -45 -35 -83 -111 -223 -382 -308 -597 -188 -91 51
-186 175 -205 268 l-5 27 -568 0 -567 0 -13 -42 c-34 -115 -115 -210 -228
-265 -73 -36 -80 -38 -176 -38 -81 0 -113 5 -162 23 -110 42 -217 152 -250
258 l-18 54 -625 0 -626 0 -23 -64 c-25 -68 -89 -152 -154 -200 -21 -15 -69
-39 -106 -52 -159 -56 -337 -11 -456 115 -184 197 -137 519 95 658 79 47 149
64 247 59 72 -3 95 -9 157 -40z m7303 -86 c119 -63 182 -167 182 -300 0 -98
-29 -170 -96 -237 -75 -75 -127 -96 -239 -97 -116 -1 -177 25 -252 107 -65 72
-88 135 -87 237 2 91 25 150 85 215 79 85 154 117 269 112 63 -3 86 -9 138
-37z m560 -30 c4 -12 2 -13 -9 -2 -36 33 -81 -8 -60 -55 12 -25 19 -26 66 -7
18 7 19 6 6 -10 -21 -26 -72 -17 -90 15 -13 24 -13 29 3 53 14 22 24 27 48 24
17 -2 33 -10 36 -18z m86 -16 c19 -19 20 -35 3 -58 -21 -28 -61 -17 -65 17 -6
49 30 73 62 41z m66 4 c0 -4 -4 -10 -10 -13 -5 -3 -10 -19 -10 -36 0 -16 -4
-29 -10 -29 -5 0 -10 19 -10 43 0 36 3 43 20 43 11 0 20 -4 20 -8z m118 0 c21
-21 13 -38 -18 -38 -23 0 -28 -4 -23 -16 4 -11 13 -14 32 -9 20 5 23 4 15 -5
-7 -6 -22 -10 -35 -8 -18 2 -25 10 -27 31 -5 46 28 73 56 45z m-188 -188 c0
-5 -4 -10 -10 -10 -5 0 -10 5 -10 10 0 6 5 10 10 10 6 0 10 -4 10 -10z m154
-12 c-3 -5 -1 -14 4 -21 5 -7 11 -26 14 -43 4 -31 3 -32 -35 -32 -34 -1 -38 2
-35 21 2 14 11 23 26 25 12 2 22 8 22 14 0 6 -10 8 -25 4 -31 -8 -33 7 -2 23
12 6 14 9 5 7 -17 -5 -24 4 -12 16 9 9 44 -3 38 -14z m-361 -29 c5 -9 7 -28 3
-42 -5 -20 -13 -27 -31 -27 -16 0 -25 -6 -25 -15 0 -8 -4 -15 -10 -15 -10 0
-14 102 -5 112 11 11 58 2 68 -13z m87 7 c16 -20 9 -56 -12 -70 -40 -24 -80
44 -42 71 23 17 39 16 54 -1z m77 -3 c3 -7 -3 -9 -16 -6 -12 3 -21 1 -21 -5 0
-5 12 -13 26 -16 17 -5 24 -12 22 -24 -4 -20 -46 -29 -62 -12 -8 9 -4 10 17 5
34 -9 36 8 2 23 -27 12 -33 37 -12 45 18 8 40 3 44 -10z m43 -34 c0 -21 -4
-39 -10 -39 -5 0 -10 21 -10 46 0 27 4 43 10 39 6 -3 10 -24 10 -46z m80 37
c10 -13 7 -15 -16 -13 -30 2 -41 -17 -25 -42 8 -12 12 -13 25 -1 21 16 32 7
13 -11 -7 -8 -12 -20 -9 -27 2 -6 -1 -12 -7 -12 -6 0 -11 6 -11 14 0 8 -7 16
-15 20 -18 7 -21 72 -2 79 22 9 34 7 47 -7z m169 0 c20 -24 10 -70 -17 -74
-46 -7 -69 40 -36 72 19 20 38 20 53 2z m-144 -249 c0 -60 -21 -63 -27 -4 -5
47 -2 60 15 54 6 -2 11 -24 12 -50z m-334 27 c11 -13 9 -14 -14 -9 -25 7 -27
5 -27 -24 0 -31 24 -45 33 -18 2 6 8 9 12 4 14 -12 -11 -29 -36 -25 -18 2 -25
10 -27 31 -6 48 31 74 59 41z m83 0 c33 -32 10 -79 -36 -72 -17 2 -24 11 -26
31 -6 49 30 73 62 41z m66 4 c0 -4 -4 -8 -10 -8 -5 0 -10 -16 -10 -35 0 -19
-4 -35 -10 -35 -5 0 -10 19 -10 43 0 36 3 43 20 43 11 0 20 -4 20 -8z m60 2
c3 0 -3 -5 -12 -11 -11 -6 -18 -22 -18 -39 0 -17 -4 -30 -10 -30 -10 0 -14 72
-4 82 5 5 15 5 44 -2z m68 -2 c22 -22 13 -38 -19 -38 -20 0 -29 -4 -26 -12 2
-7 16 -12 31 -11 14 1 24 -2 21 -8 -12 -19 -55 -9 -66 15 -21 45 26 87 59 54z
m130 0 c5 -7 11 -27 14 -44 4 -31 3 -32 -35 -32 -34 -1 -38 2 -35 21 2 14 11
23 26 25 12 2 22 8 22 14 0 6 -10 8 -25 4 -25 -6 -36 8 -12 17 21 9 34 7 45
-5z m89 -4 c2 -7 -6 -10 -23 -6 -19 3 -25 1 -20 -7 4 -6 13 -11 20 -11 18 0
35 -21 29 -36 -6 -15 -63 -20 -63 -5 0 4 11 6 25 3 14 -2 25 0 25 5 0 5 -11
15 -25 21 -24 11 -32 31 -18 46 10 10 46 3 50 -10z m-8294 -439 c107 -28 194
-89 257 -181 35 -49 70 -150 70 -199 l0 -35 619 -2 619 -3 5 57 c11 126 113
270 231 328 88 43 160 55 252 42 98 -13 175 -52 245 -121 66 -66 104 -143 121
-240 l12 -71 557 0 556 0 7 62 c8 81 52 174 113 239 244 261 675 128 736 -227
l12 -69 616 3 616 2 6 61 c11 124 106 258 226 319 118 59 271 61 389 4 72 -35
152 -116 193 -195 33 -63 34 -67 34 -189 l0 -125 -39 -73 c-47 -87 -115 -153
-206 -196 -60 -29 -73 -31 -175 -31 -103 0 -114 2 -178 32 -87 41 -168 121
-207 205 -17 35 -30 71 -30 81 0 16 -37 17 -630 17 -526 0 -630 -2 -630 -14 0
-7 -16 -45 -35 -83 -42 -85 -117 -158 -206 -203 -115 -58 -279 -52 -394 15
-92 53 -183 174 -202 266 l-5 29 -568 0 -567 0 -12 -43 c-34 -114 -124 -216
-238 -269 -136 -64 -305 -46 -430 46 -68 49 -133 139 -153 210 l-13 46 -628 0
c-536 0 -629 -2 -629 -14 0 -28 -42 -112 -82 -163 -117 -153 -338 -206 -511
-125 -277 129 -341 480 -128 693 109 108 262 151 404 114z m8012 -1006 c11
-17 -2 -21 -23 -8 -17 10 -23 10 -36 0 -37 -31 -4 -97 36 -72 21 13 34 9 23
-8 -10 -17 -56 -13 -77 6 -22 20 -23 51 -1 75 18 20 68 24 78 7z m84 -23 c7
-8 11 -27 9 -43 -2 -22 -9 -29 -31 -31 -21 -3 -29 2 -36 20 -18 49 28 91 58
54z m71 2 c0 -4 -4 -8 -10 -8 -5 0 -10 -16 -10 -35 0 -19 -4 -35 -10 -35 -5 0
-10 19 -10 43 0 36 3 43 20 43 11 0 20 -4 20 -8z m-8232 -13 c84 -20 128 -44
196 -105 70 -65 123 -167 132 -255 l6 -60 619 0 619 0 0 40 c0 94 48 192 134
273 133 126 325 153 488 71 124 -63 218 -199 226 -326 l4 -63 564 0 564 1 0
37 c0 50 26 136 56 188 33 56 120 136 181 167 110 56 262 56 382 0 72 -34 160
-122 194 -194 14 -30 31 -85 38 -122 l12 -67 618 0 617 0 4 58 c11 151 144
307 302 353 198 58 416 -41 509 -231 28 -57 32 -77 35 -162 4 -113 -11 -173
-65 -255 -88 -133 -223 -200 -388 -191 -64 3 -95 11 -147 35 -109 51 -203 154
-233 256 l-12 42 -626 3 -625 2 -16 -46 c-38 -113 -121 -204 -234 -257 -63
-30 -74 -32 -177 -32 -96 1 -117 4 -165 26 -116 55 -198 144 -240 260 l-18 54
-565 3 -565 2 -17 -52 c-36 -114 -120 -208 -233 -261 -63 -30 -74 -32 -177
-32 -103 0 -114 2 -178 32 -86 41 -167 121 -207 205 -17 35 -30 71 -30 81 0
16 -37 17 -628 17 l-629 0 -12 -39 c-31 -105 -126 -212 -231 -263 -117 -56
-282 -49 -395 17 -69 40 -136 114 -172 192 -154 322 136 680 485 598z m8197
-238 c0 -60 -21 -63 -27 -4 -5 47 -2 60 15 54 6 -2 11 -24 12 -50z m-334 27
c11 -13 9 -14 -14 -9 -25 7 -27 5 -27 -24 0 -31 24 -45 33 -18 2 6 8 9 12 4
14 -12 -11 -29 -36 -25 -18 2 -25 10 -27 31 -6 48 31 74 59 41z m83 0 c19 -19
20 -35 3 -58 -21 -28 -61 -17 -65 17 -6 49 30 73 62 41z m66 4 c0 -4 -4 -8
-10 -8 -5 0 -10 -16 -10 -35 0 -19 -4 -35 -10 -35 -5 0 -10 19 -10 43 0 36 3
43 20 43 11 0 20 -4 20 -8z m60 2 c0 -4 -7 -10 -15 -14 -9 -3 -15 -18 -15 -36
0 -16 -4 -30 -10 -30 -10 0 -15 72 -5 81 8 8 45 8 45 -1z m68 -2 c22 -22 13
-38 -19 -38 -20 0 -29 -4 -26 -12 2 -7 16 -12 31 -11 14 1 24 -2 21 -8 -11
-16 -54 -10 -65 10 -14 27 -13 37 6 55 19 19 36 20 52 4z m130 0 c7 -7 12 -23
12 -37 0 -23 5 -26 35 -28 41 -2 45 9 9 26 -32 14 -29 46 5 46 14 0 26 -5 28
-11 2 -7 -6 -10 -23 -6 -19 3 -25 1 -20 -7 4 -6 13 -11 20 -11 19 0 36 -23 28
-37 -4 -6 -38 -11 -80 -12 -70 0 -73 0 -70 22 2 14 11 23 26 25 12 2 22 8 22
14 0 6 -10 8 -25 4 -25 -6 -36 8 -12 17 21 9 32 8 45 -5z m429 -290 c-3 -8 -6
-5 -6 6 -1 11 2 17 5 13 3 -3 4 -12 1 -19z m-607 -118 c0 -5 -4 -10 -10 -10
-5 0 -10 5 -10 10 0 6 5 10 10 10 6 0 10 -4 10 -10z m159 -14 c-1 -6 0 -18 4
-26 3 -8 7 -27 10 -42 4 -27 2 -28 -35 -28 -35 0 -39 2 -36 23 2 14 11 23 26
25 12 2 22 8 22 14 0 6 -10 8 -25 4 -31 -8 -33 7 -2 23 12 6 14 9 5 7 -17 -5
-24 4 -12 16 9 10 44 -4 43 -16z m-366 -27 c5 -9 7 -28 3 -42 -5 -20 -13 -27
-31 -27 -16 0 -25 -6 -25 -15 0 -8 -4 -15 -10 -15 -10 0 -14 102 -5 112 11 11
58 2 68 -13z m85 9 c28 -28 7 -78 -34 -78 -22 0 -34 17 -34 49 0 21 19 41 40
41 9 0 21 -5 28 -12z m79 -5 c3 -7 -3 -9 -16 -6 -28 7 -27 -10 2 -22 12 -6 22
-17 22 -25 0 -18 -43 -26 -59 -10 -8 9 -4 10 17 5 34 -9 36 8 2 23 -27 12 -33
37 -12 45 18 8 40 3 44 -10z m43 -28 c0 -25 -4 -45 -10 -45 -11 0 -14 73 -3
83 11 12 13 8 13 -38z m80 31 c10 -13 7 -15 -16 -13 -30 2 -41 -17 -25 -42 8
-12 12 -12 25 -2 13 11 16 11 16 -3 0 -9 -4 -16 -9 -16 -5 0 -8 -7 -7 -16 0
-9 -4 -19 -11 -21 -7 -3 -10 3 -6 15 3 12 -1 22 -11 25 -9 4 -16 18 -16 35 0
46 35 68 60 38z m169 0 c20 -24 10 -70 -17 -74 -46 -7 -69 40 -36 72 19 20 38
20 53 2z m-119 -241 l0 -55 -82 3 c-76 2 -83 4 -83 22 0 13 8 21 23 23 12 2
22 8 22 14 0 6 -9 8 -20 5 -11 -3 -20 -1 -20 3 0 15 19 22 40 15 15 -5 20 -15
20 -41 0 -19 5 -34 10 -34 6 0 10 13 10 29 0 32 22 56 45 47 10 -4 15 1 15 15
0 11 5 17 10 14 6 -3 10 -31 10 -60z m-302 23 c22 -22 13 -38 -19 -38 -20 0
-29 -4 -26 -12 2 -7 17 -12 32 -11 20 2 25 -1 18 -8 -6 -6 -21 -9 -34 -7 -18
2 -25 10 -27 31 -5 46 28 73 56 45z m72 0 c0 -4 -4 -8 -10 -8 -5 0 -10 -16
-10 -35 0 -19 -4 -35 -10 -35 -5 0 -10 19 -10 43 0 36 3 43 20 43 11 0 20 -4
20 -8z m43 -5 c-7 -3 -13 -20 -13 -39 0 -19 -4 -34 -10 -34 -5 0 -10 18 -10
39 0 30 4 41 18 43 20 5 32 -3 15 -9z m255 5 c5 -7 11 -27 14 -44 4 -30 3 -31
-35 -32 -34 -2 -38 0 -35 21 2 14 11 23 26 25 12 2 22 8 22 14 0 6 -11 8 -27
3 -23 -5 -25 -4 -14 9 16 19 35 20 49 4z m-8307 -168 c173 -32 311 -176 342
-355 l11 -65 617 -2 617 -3 5 61 c14 175 175 338 361 365 97 13 172 1 258 -42
123 -62 218 -199 226 -326 l4 -63 563 1 562 0 6 60 c11 128 112 271 232 330
68 33 172 52 244 44 189 -23 345 -174 373 -363 l10 -67 618 3 618 2 4 58 c2
36 15 82 36 125 77 165 261 266 438 240 151 -22 270 -107 337 -243 31 -62 32
-70 32 -185 0 -111 -2 -124 -28 -175 -25 -50 -127 -182 -127 -164 0 4 -8 0
-18 -9 -10 -9 -44 -29 -77 -44 -54 -25 -71 -28 -165 -28 -87 0 -116 4 -169 24
-107 41 -214 156 -246 266 l-12 40 -626 3 -625 2 -13 -37 c-43 -133 -141 -234
-276 -283 -53 -19 -77 -22 -155 -18 -79 3 -103 9 -158 36 -116 56 -183 129
-226 247 l-22 60 -565 3 -565 2 -17 -52 c-36 -114 -120 -208 -233 -261 -63
-30 -74 -32 -177 -32 -103 0 -114 2 -178 32 -86 41 -167 121 -207 205 -17 35
-30 71 -30 81 0 16 -37 17 -628 17 l-627 0 -19 -52 c-39 -111 -114 -195 -222
-248 -81 -39 -188 -51 -283 -30 -237 52 -384 308 -311 542 65 211 274 338 491
298z m50 -1054 c145 -41 265 -179 290 -332 l13 -74 616 0 616 0 1 41 c4 87 63
199 146 276 130 120 320 143 487 58 114 -58 211 -200 218 -322 l4 -63 563 0
562 0 6 61 c8 90 62 193 135 260 95 87 186 119 323 113 175 -8 353 -159 384
-325 12 -68 13 -74 14 -89 1 -13 76 -15 620 -12 l619 2 4 59 c9 120 109 261
229 322 84 42 171 55 259 40 143 -26 261 -114 323 -241 31 -62 32 -70 32 -185
-1 -103 -4 -127 -23 -167 -22 -46 -98 -150 -114 -156 -5 -2 -14 -9 -21 -16
-53 -50 -162 -86 -265 -86 -131 0 -228 44 -316 141 -52 58 -73 94 -91 154
l-12 40 -625 3 -625 2 -22 -59 c-39 -108 -116 -190 -233 -249 -48 -25 -63 -27
-168 -27 -105 0 -120 2 -174 28 -33 15 -80 44 -104 64 -53 44 -119 141 -135
201 l-11 42 -569 -2 -569 -3 -18 -52 c-37 -107 -119 -195 -229 -247 -62 -29
-73 -31 -176 -31 -103 0 -114 2 -178 32 -41 20 -88 53 -121 86 -54 54 -116
159 -116 197 0 20 -4 20 -630 20 -505 0 -630 -3 -630 -13 0 -36 -73 -160 -122
-207 -80 -77 -161 -113 -265 -118 -464 -24 -641 567 -240 802 88 52 226 65
338 32z m6626 -458 c-3 -8 -6 -5 -6 6 -1 11 2 17 5 13 3 -3 4 -12 1 -19z m-60
-40 c-3 -8 -6 -5 -6 6 -1 11 2 17 5 13 3 -3 4 -12 1 -19z m-280 -395 c-3 -10
-5 -4 -5 12 0 17 2 24 5 18 2 -7 2 -21 0 -30z m1131 -1618 c-3 -3 -9 2 -12 12
-6 14 -5 15 5 6 7 -7 10 -15 7 -18z"/>
<path d="M4655 9950 c-11 -18 -18 -116 -11 -154 5 -26 12 -36 25 -36 11 0 22
7 25 16 11 29 6 160 -6 172 -15 15 -25 15 -33 2z"/>
<path d="M4044 9947 c-3 -8 -4 -39 -2 -68 2 -40 7 -54 18 -54 20 0 22 126 3
132 -7 3 -15 -2 -19 -10z"/>
<path d="M5566 9944 c-9 -23 -7 -62 3 -68 5 -4 16 -3 25 0 26 10 18 84 -9 84
-7 0 -16 -7 -19 -16z"/>
<path d="M3794 9947 c-3 -8 -4 -54 -2 -103 3 -81 5 -89 23 -89 18 0 20 8 23
80 2 44 0 90 -3 102 -6 25 -33 31 -41 10z"/>
<path d="M4307 9953 c-12 -20 -18 -100 -12 -150 6 -48 9 -54 28 -51 21 3 22 8
22 103 0 85 -2 100 -17 103 -9 2 -18 -1 -21 -5z"/>
<path d="M4925 9809 c-4 -18 -3 -35 4 -42 14 -14 21 -6 28 37 4 28 2 36 -10
36 -9 0 -18 -13 -22 -31z"/>
<path d="M6406 9824 c-3 -9 -6 -27 -6 -41 0 -39 25 -22 28 20 3 37 -11 50 -22
21z"/>
<path d="M1844 8531 c-185 -47 -315 -226 -301 -415 10 -149 93 -273 225 -338
62 -31 73 -33 172 -33 97 0 110 2 170 31 84 41 155 111 194 194 29 60 31 73
31 170 0 99 -2 110 -33 172 -42 85 -129 168 -209 199 -62 24 -194 34 -249 20z"/>
<path d="M3929 8526 c-107 -29 -203 -110 -253 -216 -29 -60 -31 -73 -31 -175
0 -102 2 -114 30 -169 42 -83 110 -150 192 -189 63 -30 76 -32 173 -32 93 0
112 3 162 27 202 95 292 334 200 533 -85 181 -281 273 -473 221z"/>
<path d="M5898 8521 c-31 -10 -72 -28 -91 -40 -54 -33 -126 -116 -155 -179
-23 -50 -27 -70 -27 -162 0 -99 2 -109 33 -172 41 -85 109 -152 192 -192 60
-29 73 -31 170 -31 99 0 110 2 171 32 80 40 160 121 196 199 50 110 41 261
-24 371 -36 61 -127 139 -193 164 -78 30 -198 35 -272 10z"/>
<path d="M8017 8530 c-195 -49 -330 -253 -298 -451 21 -129 107 -244 226 -304
56 -28 68 -30 170 -30 102 0 115 3 170 30 120 59 205 173 228 308 8 51 7 76
-7 139 -41 185 -187 308 -371 314 -44 2 -97 -1 -118 -6z"/>
<path d="M10030 8360 c0 -25 4 -31 18 -28 11 2 17 12 17 28 0 16 -6 26 -17 28
-14 3 -18 -3 -18 -28z"/>
<path d="M10215 8380 c-3 -5 3 -10 14 -10 12 0 21 5 21 10 0 6 -6 10 -14 10
-8 0 -18 -4 -21 -10z"/>
<path d="M10185 8131 c-3 -5 -1 -12 5 -16 12 -7 30 2 30 16 0 12 -27 12 -35 0z"/>
<path d="M9814 8155 c-8 -21 3 -48 19 -43 19 7 22 58 2 58 -8 0 -18 -7 -21
-15z"/>
<path d="M9902 8143 c2 -17 9 -28 18 -28 9 0 16 11 18 28 3 22 -1 27 -18 27
-17 0 -21 -5 -18 -27z"/>
<path d="M10274 8155 c-8 -21 3 -48 19 -43 19 7 22 58 2 58 -8 0 -18 -7 -21
-15z"/>
<path d="M9880 7920 c0 -25 4 -31 18 -28 11 2 17 12 17 28 0 16 -6 26 -17 28
-14 3 -18 -3 -18 -28z"/>
<path d="M10070 7940 c0 -5 9 -10 20 -10 11 0 20 5 20 10 0 6 -9 10 -20 10
-11 0 -20 -4 -20 -10z"/>
<path d="M10205 7911 c-3 -5 -1 -12 5 -16 12 -7 30 2 30 16 0 12 -27 12 -35 0z"/>
<path d="M1831 7484 c-216 -58 -338 -288 -271 -508 33 -107 103 -187 210 -239
61 -30 72 -32 170 -32 97 0 110 2 170 31 86 41 153 108 193 192 30 62 32 74
32 172 0 92 -4 112 -27 162 -84 181 -284 274 -477 222z"/>
<path d="M3913 7480 c-115 -38 -209 -130 -254 -249 -31 -83 -24 -223 16 -306
36 -76 113 -152 190 -190 55 -27 68 -30 170 -30 99 0 116 3 168 27 73 35 156
113 191 181 32 65 50 170 41 243 -9 74 -65 182 -121 234 -106 97 -267 134
-401 90z"/>
<path d="M5896 7479 c-109 -37 -197 -115 -245 -218 -23 -49 -26 -68 -26 -161
0 -97 2 -110 32 -172 40 -85 106 -151 191 -191 62 -30 75 -32 172 -32 99 0
110 2 172 33 274 134 307 499 64 683 -99 75 -243 98 -360 58z"/>
<path d="M8014 7489 c-23 -5 -70 -27 -105 -48 -255 -154 -259 -519 -7 -681 73
-48 142 -64 246 -58 336 19 492 439 252 679 -70 70 -164 111 -264 115 -45 2
-100 -1 -122 -7z"/>
<path d="M10095 6470 c-9 -15 4 -50 20 -50 14 0 24 27 18 48 -6 15 -29 16 -38
2z"/>
<path d="M1770 6445 c-107 -31 -209 -119 -258 -223 -23 -50 -27 -70 -27 -162
0 -97 2 -110 32 -172 39 -82 101 -146 185 -190 60 -32 68 -33 173 -33 103 0
114 2 175 31 274 133 310 501 68 684 -26 19 -69 44 -95 54 -67 25 -184 30
-253 11z"/>
<path d="M3850 6437 c-122 -41 -213 -132 -255 -252 -25 -73 -23 -195 5 -268
44 -117 161 -222 275 -248 81 -18 199 -8 267 24 170 77 269 280 224 457 -60
233 -293 363 -516 287z"/>
<path d="M5850 6445 c-111 -32 -200 -106 -253 -215 -30 -61 -32 -71 -32 -175
0 -100 3 -115 28 -167 54 -107 134 -177 246 -213 41 -13 75 -16 141 -13 108 7
178 36 253 107 253 239 97 669 -249 687 -52 3 -98 -1 -134 -11z"/>
<path d="M7950 6446 c-155 -45 -262 -164 -292 -324 -31 -168 69 -356 230 -430
74 -34 202 -42 285 -18 70 20 169 94 214 160 86 126 88 317 3 441 -42 61 -115
124 -177 152 -67 31 -193 40 -263 19z"/>
<path d="M9880 6230 c0 -25 4 -31 18 -28 11 2 17 12 17 28 0 16 -6 26 -17 28
-14 3 -18 -3 -18 -28z"/>
<path d="M10075 6250 c-3 -5 3 -10 14 -10 12 0 21 5 21 10 0 6 -6 10 -14 10
-8 0 -18 -4 -21 -10z"/>
<path d="M10205 6221 c-3 -5 -1 -12 5 -16 12 -7 30 2 30 16 0 12 -27 12 -35 0z"/>
<path d="M10185 5781 c-3 -5 -1 -12 5 -16 12 -7 30 2 30 16 0 12 -27 12 -35 0z"/>
<path d="M9814 5805 c-8 -21 3 -48 19 -43 19 7 22 58 2 58 -8 0 -18 -7 -21
-15z"/>
<path d="M9902 5793 c2 -17 9 -28 18 -28 9 0 16 11 18 28 3 22 -1 27 -18 27
-17 0 -21 -5 -18 -27z"/>
<path d="M10274 5805 c-8 -21 3 -48 19 -43 19 7 22 58 2 58 -8 0 -18 -7 -21
-15z"/>
<path d="M10140 5576 c0 -29 19 -44 31 -25 13 20 6 43 -14 47 -12 3 -17 -3
-17 -22z"/>
<path d="M10050 5555 c0 -8 4 -15 9 -15 5 0 14 7 21 15 10 13 9 15 -9 15 -12
0 -21 -6 -21 -15z"/>
<path d="M9855 5590 c-3 -5 3 -10 14 -10 12 0 21 5 21 10 0 6 -6 10 -14 10 -8
0 -18 -4 -21 -10z"/>
<path d="M10230 5554 c0 -9 5 -14 12 -12 18 6 21 28 4 28 -9 0 -16 -7 -16 -16z"/>
<path d="M1780 5406 c-116 -32 -211 -110 -262 -214 -31 -63 -33 -74 -33 -172
0 -97 2 -110 32 -173 39 -82 108 -152 189 -193 54 -26 68 -29 169 -29 103 0
114 2 177 32 83 39 149 106 191 193 74 155 33 354 -98 468 -97 86 -244 121
-365 88z"/>
<path d="M3870 5405 c-152 -43 -261 -163 -289 -322 -32 -173 65 -354 229 -432
49 -23 67 -26 165 -26 98 0 116 3 167 27 171 80 269 281 224 458 -46 178 -189
297 -371 306 -43 2 -91 -2 -125 -11z"/>
<path d="M5850 5404 c-110 -30 -199 -105 -253 -214 -30 -61 -32 -71 -32 -175
0 -101 2 -115 29 -168 37 -76 116 -156 191 -193 55 -27 69 -29 170 -29 104 0
114 2 175 32 162 79 254 255 222 423 -45 242 -269 387 -502 324z"/>
<path d="M7950 5404 c-121 -32 -226 -126 -272 -244 -28 -72 -30 -193 -5 -271
20 -60 87 -156 106 -151 6 1 11 -4 11 -12 0 -19 83 -71 148 -91 81 -27 211
-18 287 19 76 38 160 122 190 191 140 315 -136 647 -465 559z"/>
<path d="M1787 4370 c-55 -14 -133 -56 -177 -96 -168 -152 -173 -427 -11 -582
249 -238 658 -82 679 259 14 227 -152 414 -376 425 -42 2 -94 -1 -115 -6z"/>
<path d="M3870 4364 c-302 -81 -396 -470 -165 -683 159 -146 417 -136 563 23
63 70 92 133 104 227 36 280 -227 507 -502 433z"/>
<path d="M5868 4369 c-113 -26 -226 -120 -276 -227 -24 -51 -27 -69 -27 -167
0 -101 2 -115 29 -170 120 -243 439 -303 635 -120 84 79 131 185 131 296 0
104 -71 249 -152 311 -98 74 -227 104 -340 77z"/>
<path d="M7950 4365 c-154 -43 -262 -162 -292 -323 -31 -168 68 -355 230 -430
51 -24 69 -27 167 -27 98 0 116 3 166 26 73 35 163 123 195 193 84 183 24 392
-143 507 -88 61 -219 82 -323 54z m377 -412 c-3 -10 -5 -2 -5 17 0 19 2 27 5
18 2 -10 2 -26 0 -35z"/>
</g>
</svg>
